<svg width="350" height="375" viewBox="0 0 350 375" fill="none" xmlns="http://www.w3.org/2000/svg">
<path d="M319.112 122.724L219.504 222.769C213.873 228.421 217.867 238.084 225.839 238.084H338.22C340.322 238.083 342.357 237.34 343.968 235.986C345.579 234.632 346.664 232.753 347.032 230.677C353.476 194.991 348.771 158.18 333.56 125.276C332.953 123.967 332.039 122.824 330.897 121.944C329.755 121.065 328.418 120.475 326.999 120.224C325.581 119.974 324.123 120.07 322.75 120.505C321.377 120.941 320.129 121.702 319.112 122.724Z" fill="#CCCCCC"/>
<path d="M182.566 262.702L261.6 343.382C263.061 344.876 264.999 345.809 267.076 346.018C269.152 346.226 271.236 345.696 272.964 344.521C303.396 323.845 326.58 294.105 339.242 259.5C339.728 258.153 339.884 256.707 339.696 255.287C339.507 253.866 338.981 252.512 338.16 251.339C337.34 250.165 336.25 249.207 334.982 248.545C333.715 247.883 332.308 247.537 330.879 247.536H188.918C187.168 247.539 185.457 248.06 184 249.032C182.543 250.005 181.404 251.388 180.726 253.006C180.048 254.625 179.861 256.407 180.188 258.132C180.515 259.857 181.343 261.446 182.566 262.702Z" fill="#CCCCCC"/>
<path d="M11.6511 160.4C9.54574 160.401 7.50744 161.143 5.89176 162.497C4.27609 163.85 3.18549 165.73 2.8102 167.807C-3.66416 203.655 1.1122 240.635 16.4807 273.646C17.0947 274.958 18.0152 276.101 19.1639 276.98C20.3127 277.859 21.6558 278.447 23.0795 278.694C24.5031 278.94 25.9652 278.84 27.3416 278.4C28.7181 277.959 29.9683 277.192 30.9863 276.165L130.418 175.755C131.668 174.492 132.518 172.887 132.859 171.142C133.201 169.396 133.019 167.588 132.337 165.946C131.655 164.304 130.503 162.9 129.028 161.914C127.552 160.927 125.817 160.4 124.043 160.4H11.6511Z" fill="#808080"/>
<path d="M166.583 135.748L87.1627 55.7743C85.6928 54.2896 83.7491 53.3706 81.6718 53.178C79.5945 52.9854 77.5156 53.5313 75.7991 54.7203C45.8908 75.368 23.1102 104.814 10.6002 138.995C10.1125 140.343 9.95613 141.789 10.1441 143.211C10.3321 144.632 10.859 145.987 11.6802 147.161C12.5014 148.335 13.5926 149.293 14.8615 149.954C16.1304 150.616 17.5395 150.96 18.9695 150.96H160.276C162.033 150.956 163.748 150.432 165.208 149.453C166.668 148.475 167.806 147.085 168.48 145.459C169.154 143.834 169.334 142.044 168.996 140.316C168.659 138.588 167.819 136.999 166.583 135.748Z" fill="#666666"/>
<path d="M136.185 250.812V362.969C136.186 365.079 136.927 367.122 138.277 368.74C139.627 370.358 141.5 371.449 143.571 371.823C178.528 378.177 214.584 373.751 246.981 359.129C248.295 358.531 249.446 357.623 250.336 356.484C251.226 355.344 251.828 354.005 252.092 352.582C252.356 351.158 252.274 349.692 251.852 348.308C251.429 346.924 250.681 345.662 249.668 344.63L151.56 244.505C145.929 238.762 136.185 242.756 136.185 250.812Z" fill="#B3B3B3"/>
<path d="M111.771 207.979L32.3216 288.209C30.8723 289.672 29.9811 291.598 29.8035 293.653C29.626 295.707 30.1733 297.759 31.35 299.45C51.9525 329.1 81.1632 351.667 115.009 364.08C116.335 364.563 117.758 364.718 119.156 364.532C120.555 364.346 121.889 363.825 123.044 363.013C124.199 362.201 125.142 361.121 125.792 359.866C126.443 358.611 126.782 357.217 126.782 355.802V214.183C126.783 212.439 126.267 210.733 125.3 209.283C124.332 207.833 122.957 206.704 121.349 206.039C119.74 205.374 117.971 205.204 116.265 205.549C114.56 205.894 112.996 206.74 111.771 207.979Z" fill="#999999"/>
<path d="M213.64 148.254V35.4119C213.638 33.3266 212.906 31.3081 211.572 29.7087C210.237 28.1094 208.385 27.0306 206.339 26.6608C170.878 20.2084 134.296 24.855 101.56 39.9698C100.265 40.5702 99.1346 41.475 98.263 42.6072C97.3915 43.7394 96.8051 45.0657 96.5534 46.4737C96.3017 47.8815 96.3926 49.3295 96.8182 50.6947C97.2437 52.0599 97.9915 53.3022 98.9977 54.3158L198.509 154.526C199.748 155.768 201.326 156.614 203.044 156.958C204.762 157.301 206.544 157.126 208.162 156.455C209.782 155.783 211.166 154.646 212.141 153.186C213.116 151.727 213.638 150.01 213.64 148.254Z" fill="#E5B82A"/>
<path d="M245.275 183.529L340.06 82.7958C342.413 80.3004 343.775 76.9915 343.879 73.5175C343.984 70.0429 342.823 66.6538 340.625 64.0137C317.949 36.8284 275.432 13.8854 240.112 0.810042C238.068 0.0604111 235.879 -0.173637 233.729 0.127561C231.579 0.428758 229.531 1.2564 227.756 2.54095C225.981 3.8255 224.532 5.52943 223.53 7.50959C222.529 9.48967 222.004 11.6882 222 13.9203V173.836C222 186.359 236.807 192.525 245.275 183.529Z" fill="#00928D"/>
</svg>
