<svg width="107" height="115" viewBox="0 0 107 115" fill="none" xmlns="http://www.w3.org/2000/svg">
<g clip-path="url(#clip0_123_49)">
<path d="M75.8794 54.6417L104.477 25.1097C105.185 24.3768 105.594 23.406 105.624 22.3875C105.654 21.3689 105.302 20.376 104.637 19.6033C97.8045 11.6333 84.9757 4.91563 74.3268 1.07207C73.7098 0.851276 73.0489 0.781863 72.3995 0.869675C71.7502 0.957487 71.1314 1.19995 70.5954 1.57666C70.0593 1.95337 69.6217 2.4533 69.3192 3.03437C69.0168 3.61543 68.8584 4.26062 68.8574 4.91563V51.7999C68.8574 55.4714 73.3263 57.279 75.8794 54.6417Z" fill="white"/>
<path d="M96.9266 38.8635L67.0489 68.7806C65.3599 70.4723 66.558 73.3618 68.9493 73.3618H102.66C103.291 73.3612 103.901 73.1391 104.384 72.7342C104.867 72.3293 105.193 71.7675 105.304 71.147C107.236 60.4755 105.825 49.4678 101.263 39.6284C101.08 39.2368 100.806 38.8948 100.463 38.6317C100.121 38.3685 99.7195 38.1919 99.2939 38.1168C98.8683 38.0417 98.4309 38.0704 98.0188 38.2004C97.6067 38.3304 97.232 38.5578 96.9266 38.8635V38.8635Z" stroke="white" stroke-width="2" stroke-miterlimit="10"/>
<path d="M55.9669 80.7306L79.6747 104.85C80.113 105.297 80.6943 105.576 81.3173 105.638C81.9403 105.7 82.5653 105.542 83.0835 105.191C92.2113 99.0069 99.1657 90.1136 102.965 79.7663C103.111 79.3632 103.157 78.9309 103.101 78.506C103.044 78.0811 102.886 77.6761 102.64 77.3251C102.394 76.9742 102.067 76.6877 101.686 76.4899C101.306 76.292 100.883 76.1887 100.454 76.1885H57.8758C55.505 76.18 54.3085 79.0269 55.9669 80.7306Z" stroke="white" stroke-width="2" stroke-miterlimit="10"/>
<path d="M4.69936 50.1301C4.06781 50.1304 3.45639 50.3522 2.97174 50.757C2.48708 51.1618 2.15993 51.7238 2.04736 52.3449C0.106135 63.0645 1.53949 74.122 6.14979 83.993C6.33431 84.3839 6.61024 84.7247 6.95426 84.9865C7.29828 85.2484 7.70029 85.4236 8.12634 85.4975C8.55239 85.5713 8.98996 85.5416 9.40209 85.4108C9.81423 85.28 10.1888 85.052 10.4942 84.746L40.3208 54.7182C40.696 54.341 40.951 53.8611 41.0536 53.3391C41.1561 52.8171 41.1017 52.2764 40.8971 51.7853C40.6925 51.2943 40.3469 50.8748 39.904 50.5799C39.4611 50.285 38.9407 50.1279 38.4085 50.1284H4.69936V50.1301Z" stroke="white" stroke-width="2" stroke-miterlimit="10"/>
<path d="M52.0633 43.077L27.7874 18.8518C27.3378 18.4027 26.7438 18.1248 26.109 18.0664C25.4742 18.0081 24.8389 18.173 24.314 18.5325C15.1727 24.7875 8.20962 33.707 4.38517 44.0607C4.23613 44.469 4.18831 44.907 4.24578 45.3376C4.30324 45.7682 4.4643 46.1787 4.7153 46.5343C4.9663 46.8899 5.29985 47.1801 5.6877 47.3804C6.07555 47.5807 6.50626 47.6852 6.94336 47.6849H50.1355C52.5582 47.6901 53.7722 44.7838 52.0633 43.077Z" stroke="white" stroke-width="2" stroke-miterlimit="10"/>
<path d="M42.0562 77.1663V110.705C42.0565 111.336 42.2786 111.947 42.6836 112.431C43.0886 112.915 43.6507 113.241 44.2718 113.353C54.758 115.251 65.5733 113.926 75.2915 109.555C75.6855 109.376 76.0305 109.105 76.2972 108.764C76.564 108.424 76.7445 108.024 76.8237 107.598C76.9028 107.173 76.8781 106.735 76.7517 106.321C76.6253 105.907 76.4009 105.53 76.0976 105.221L46.6682 75.2786C44.9792 73.5629 42.0562 74.7572 42.0562 77.1663Z" stroke="white" stroke-width="2" stroke-miterlimit="10"/>
<path d="M34.732 64.3578L10.898 88.3494C10.4635 88.787 10.1964 89.3631 10.1431 89.9773C10.0899 90.5916 10.2539 91.205 10.6065 91.7108C16.7866 100.577 25.549 107.325 35.7018 111.038C36.0996 111.182 36.5263 111.228 36.9459 111.173C37.3654 111.117 37.7654 110.961 38.1119 110.718C38.4583 110.476 38.7412 110.153 38.9364 109.777C39.1316 109.402 39.2334 108.985 39.2332 108.562V66.2131C39.2341 65.6914 39.0797 65.1813 38.7897 64.7475C38.4998 64.3137 38.0873 63.9759 37.6048 63.777C37.1223 63.5781 36.5916 63.5272 36.08 63.6306C35.5685 63.734 35.0992 63.9871 34.732 64.3578V64.3578Z" stroke="white" stroke-width="2" stroke-miterlimit="10"/>
<path d="M65.2954 46.4978V12.7525C65.2949 12.1289 65.0754 11.5253 64.6751 11.0471C64.2748 10.5688 63.7192 10.2462 63.1053 10.1356C52.4659 8.20558 41.4902 9.59508 31.6681 14.1155C31.2797 14.295 30.9404 14.5656 30.679 14.9042C30.4175 15.2427 30.2416 15.6393 30.1662 16.0604C30.0908 16.4814 30.118 16.9144 30.2457 17.3226C30.3733 17.7308 30.5976 18.1023 30.8994 18.4054L60.7481 48.3736C62.4235 50.0637 65.2954 48.8711 65.2954 46.4978Z" fill="white"/>
</g>
<defs>
<clipPath id="clip0_123_49">
<rect width="107" height="115" fill="white"/>
</clipPath>
</defs>
</svg>
