<svg width="63" height="66" viewBox="0 0 63 66" fill="none" xmlns="http://www.w3.org/2000/svg">
<path d="M57.4402 20.465L39.5107 38.5229C38.4972 39.543 39.2162 41.2871 40.6511 41.2871H60.8796C61.258 41.2869 61.6243 41.1529 61.9143 40.9084C62.2043 40.6641 62.3996 40.3249 62.4658 39.9502C63.6257 33.5089 62.7788 26.8647 60.041 20.9257C59.9316 20.6894 59.7672 20.4831 59.5615 20.3244C59.3559 20.1656 59.1153 20.0592 58.8599 20.0139C58.6046 19.9687 58.3423 19.986 58.0951 20.0646C57.8479 20.1432 57.6232 20.2806 57.4402 20.465Z" fill="#CCCCCC"/>
<path d="M32.8615 45.7306L47.0877 60.293C47.3506 60.5628 47.6995 60.7311 48.0733 60.7688C48.4471 60.8063 48.8222 60.7108 49.1331 60.4987C54.6109 56.7667 58.784 51.3986 61.0632 45.1526C61.1507 44.9094 61.1787 44.6485 61.1449 44.3922C61.1109 44.1358 61.0162 43.8914 60.8685 43.6796C60.7208 43.4678 60.5247 43.2948 60.2965 43.1753C60.0684 43.0558 59.815 42.9933 59.5578 42.9931H34.0049C33.6898 42.9937 33.3819 43.0877 33.1196 43.2633C32.8573 43.4389 32.6524 43.6884 32.5304 43.9805C32.4083 44.2727 32.3746 44.5944 32.4335 44.9057C32.4924 45.217 32.6413 45.5039 32.8615 45.7306Z" fill="#CCCCCC"/>
<path d="M2.0972 27.2656C1.71823 27.2658 1.35134 27.3997 1.06052 27.644C0.769695 27.8882 0.573389 28.2275 0.505836 28.6024C-0.659549 35.0729 0.200196 41.7476 2.96652 47.7061C3.07705 47.9428 3.24273 48.1492 3.44951 48.3078C3.65628 48.4663 3.89805 48.5725 4.15431 48.6171C4.41055 48.6616 4.67373 48.6434 4.92149 48.564C5.16925 48.4845 5.3943 48.3461 5.57754 48.1606L23.4753 30.037C23.7003 29.8091 23.8532 29.5194 23.9146 29.2043C23.9761 28.8892 23.9434 28.5629 23.8206 28.2665C23.6979 27.9701 23.4906 27.7168 23.225 27.5387C22.9593 27.3606 22.6471 27.2656 22.3278 27.2656H2.0972Z" fill="#808080"/>
<path d="M29.9849 22.8159L15.6893 8.38091C15.4247 8.11293 15.0748 7.94705 14.7009 7.91229C14.327 7.87754 13.9528 7.97605 13.6438 8.19067C8.26032 11.9175 4.1598 17.2324 1.908 23.402C1.82023 23.6453 1.79207 23.9063 1.82592 24.1629C1.85976 24.4195 1.95459 24.664 2.10241 24.876C2.25022 25.0878 2.44664 25.2608 2.67504 25.3801C2.90344 25.4995 3.15708 25.5617 3.41448 25.5616H28.8497C29.1658 25.561 29.4746 25.4663 29.7374 25.2897C30.0002 25.113 30.2051 24.8622 30.3264 24.5687C30.4477 24.2753 30.48 23.9523 30.4193 23.6404C30.3585 23.3285 30.2074 23.0416 29.9849 22.8159Z" fill="#666666"/>
<path d="M24.5132 43.5844V63.8285C24.5134 64.2093 24.6466 64.578 24.8896 64.87C25.1326 65.1621 25.4699 65.3591 25.8427 65.4266C32.135 66.5734 38.6251 65.7746 44.4564 63.1354C44.693 63.0274 44.9002 62.8635 45.0604 62.6578C45.2205 62.4521 45.329 62.2105 45.3765 61.9535C45.424 61.6966 45.4091 61.4321 45.3331 61.1822C45.2572 60.9323 45.1224 60.7045 44.9401 60.5183L27.2807 42.446C26.2672 41.4094 24.5132 42.1303 24.5132 43.5844Z" fill="#B3B3B3"/>
<path d="M20.1188 35.8533L5.81804 50.3345C5.55716 50.5986 5.39675 50.9463 5.36479 51.3171C5.33283 51.6879 5.43135 52.0582 5.64316 52.3634C9.3516 57.7152 14.6095 61.7884 20.7018 64.0291C20.9405 64.1162 21.1966 64.1441 21.4483 64.1106C21.7001 64.077 21.9401 63.983 22.148 63.8363C22.356 63.6898 22.5256 63.4949 22.6427 63.2684C22.7599 63.0418 22.821 62.7902 22.8209 62.5349V36.9731C22.8211 36.6583 22.7282 36.3504 22.5542 36.0887C22.38 35.8269 22.1325 35.6231 21.843 35.5031C21.5534 35.3831 21.2349 35.3524 20.9279 35.4147C20.621 35.477 20.3393 35.6297 20.1188 35.8533Z" fill="#999999"/>
<path d="M38.4551 25.073V4.70553C38.4548 4.32914 38.323 3.96481 38.0828 3.67612C37.8427 3.38744 37.5093 3.19273 37.1409 3.12598C30.7579 1.96135 24.1732 2.80005 18.2808 5.52821C18.0477 5.63659 17.8442 5.79989 17.6873 6.00425C17.5304 6.20862 17.4248 6.44801 17.3795 6.70213C17.3342 6.95625 17.3506 7.2176 17.4272 7.46401C17.5038 7.71042 17.6384 7.93466 17.8195 8.11761L35.7316 26.2053C35.9545 26.4294 36.2386 26.5822 36.5479 26.6442C36.8572 26.7061 37.1778 26.6745 37.4692 26.5534C37.7606 26.4321 38.0098 26.2269 38.1853 25.9634C38.3608 25.6999 38.4547 25.3901 38.4551 25.073Z" fill="#E5B82A"/>
<path d="M44.4541 29.9508L60.1488 13.5118C60.5383 13.1045 60.7639 12.5645 60.7812 11.9976C60.7985 11.4306 60.6064 10.8775 60.2424 10.4466C56.4875 6.01018 49.4474 2.26602 43.5991 0.132194C43.2607 0.00985873 42.8982 -0.0283365 42.5422 0.0208171C42.1862 0.0699706 41.847 0.205037 41.5531 0.414668C41.2593 0.624298 41.0194 0.902369 40.8535 1.22552C40.6877 1.54866 40.6008 1.90744 40.6001 2.27171V28.3689C40.6001 30.4126 43.0519 31.4188 44.4541 29.9508Z" fill="#00928D"/>
</svg>
