<svg width="616" height="666" viewBox="0 0 616 666" fill="none" xmlns="http://www.w3.org/2000/svg">
<g clip-path="url(#clip0_193_82)">
<path d="M438.13 315.86L605.92 142.52C610.076 138.218 612.475 132.52 612.649 126.542C612.823 120.563 610.759 114.735 606.86 110.2C566.77 63.4198 491.52 23.9398 429.02 1.43978C425.4 0.143817 421.522 -0.263382 417.712 0.252035C413.903 0.767452 410.272 2.19057 407.127 4.40169C403.982 6.61281 401.414 9.54702 399.639 12.9576C397.865 16.3682 396.936 20.1552 396.93 23.9998V299.18C396.93 320.73 423.15 331.34 438.13 315.86Z" fill="#00928D"/>
<path d="M561.62 223.25L386.32 398.81C376.41 408.74 383.44 425.7 397.47 425.7H595.26C598.959 425.694 602.539 424.39 605.373 422.014C608.208 419.638 610.118 416.341 610.77 412.7C614.062 394.484 615.715 376.011 615.71 357.5C615.771 312.646 605.991 268.324 587.06 227.66C585.981 225.369 584.366 223.371 582.351 221.836C580.337 220.301 577.982 219.273 575.487 218.841C572.991 218.408 570.428 218.583 568.014 219.351C565.601 220.118 563.407 221.456 561.62 223.25V223.25Z" fill="#CCCCCC"/>
<path d="M321.26 468.94L460.37 610.55C462.94 613.175 466.351 614.814 470.007 615.179C473.663 615.545 477.331 614.614 480.37 612.55C533.931 576.26 574.742 524.064 597.04 463.33C597.896 460.964 598.169 458.427 597.837 455.933C597.506 453.439 596.578 451.062 595.133 449.002C593.688 446.942 591.769 445.26 589.537 444.099C587.305 442.938 584.826 442.331 582.31 442.33H332.48C318.59 442.28 311.57 459.02 321.26 468.94Z" fill="#CCCCCC"/>
<path d="M20.4999 289.38C16.7939 289.38 13.2056 290.681 10.3615 293.057C7.51751 295.433 5.59859 298.733 4.9399 302.38C-6.44973 365.299 1.96011 430.202 29.0099 488.14C30.0907 490.442 31.7107 492.449 33.7325 493.991C35.7543 495.533 38.1182 496.565 40.6238 496.999C43.1294 497.433 45.7026 497.256 48.1252 496.483C50.5478 495.71 52.7483 494.364 54.5399 492.56L229.54 316.31C239.45 306.31 232.38 289.37 218.33 289.37L20.4999 289.38Z" fill="#808080"/>
<path d="M293.18 246.1L153.39 105.74C150.803 103.134 147.382 101.521 143.726 101.183C140.07 100.845 136.411 101.803 133.39 103.89C80.7544 140.132 40.6638 191.815 18.65 251.81C17.7921 254.175 17.5167 256.712 17.847 259.206C18.1774 261.701 19.1038 264.078 20.548 266.139C21.9921 268.199 23.9114 269.881 26.1433 271.042C28.3752 272.203 30.854 272.81 33.37 272.81H282.07C285.163 272.808 288.187 271.89 290.76 270.172C293.333 268.455 295.34 266.014 296.528 263.158C297.716 260.302 298.032 257.158 297.436 254.122C296.84 251.087 295.359 248.295 293.18 246.1V246.1Z" fill="#666666"/>
<path d="M239.68 448.07V644.93C239.682 648.633 240.985 652.218 243.361 655.058C245.737 657.898 249.035 659.814 252.68 660.47C314.205 671.625 377.666 663.853 434.68 638.18C436.992 637.129 439.016 635.536 440.581 633.536C442.146 631.536 443.206 629.188 443.67 626.692C444.134 624.195 443.989 621.623 443.248 619.194C442.506 616.766 441.19 614.551 439.41 612.74L266.74 437C256.83 426.92 239.68 433.93 239.68 448.07Z" fill="#B3B3B3"/>
<path d="M196.71 372.89L56.8699 513.71C54.3208 516.278 52.7535 519.66 52.4411 523.265C52.1286 526.87 53.0908 530.471 55.1599 533.44C91.4278 585.475 142.836 625.082 202.4 646.88C204.735 647.729 207.24 648.002 209.702 647.677C212.165 647.352 214.513 646.438 216.548 645.012C218.582 643.586 220.242 641.691 221.388 639.486C222.534 637.282 223.132 634.834 223.13 632.35V383.81C223.138 380.745 222.234 377.747 220.534 375.198C218.834 372.648 216.414 370.661 213.582 369.491C210.749 368.32 207.633 368.018 204.629 368.624C201.624 369.229 198.868 370.714 196.71 372.89Z" fill="#999999"/>
<path d="M376.03 268.06V70.06C376.027 66.3999 374.739 62.8571 372.39 60.0498C370.042 57.2425 366.782 55.349 363.18 54.6999C300.757 43.3684 236.36 51.5207 178.73 78.05C176.452 79.105 174.462 80.6936 172.929 82.6814C171.396 84.6691 170.365 86.9972 169.924 89.4682C169.482 91.9393 169.643 94.4805 170.393 96.8762C171.142 99.2719 172.459 101.451 174.23 103.23L349.36 279.07C351.54 281.259 354.321 282.752 357.35 283.359C360.379 283.967 363.521 283.662 366.377 282.483C369.232 281.304 371.674 279.304 373.393 276.737C375.111 274.169 376.029 271.15 376.03 268.06Z" fill="#FFBA00"/>
</g>
<defs>
<clipPath id="clip0_193_82">
<rect width="615.72" height="665.42" fill="white"/>
</clipPath>
</defs>
</svg>
