<svg width="2252" height="385" viewBox="0 0 2252 385" fill="none" xmlns="http://www.w3.org/2000/svg">
<g clip-path="url(#clip0_196_138)">
<path d="M78.2999 41.4001C77.8933 54.6001 77.6933 67.9335 77.7 81.4001C77.7066 94.8668 77.4066 108.217 76.7999 121.45C76.5999 126.45 76.39 131.75 76.2 137.35C76.0099 142.95 75.55 148.6 74.85 154.3C74.1412 160.019 73.0386 165.683 71.5499 171.25C70.081 176.757 68.0189 182.088 65.3999 187.15C62.5992 192.291 58.8695 196.869 54.3999 200.65C50.1465 204.218 45.3968 207.149 40.2999 209.35C35.0693 211.587 29.5752 213.15 23.95 214C18.0934 214.904 12.1759 215.355 6.25 215.35H-0.0500488V176.95H3.84998C7.36306 177.009 10.8458 176.292 14.0499 174.85C16.9453 173.519 19.5852 171.692 21.85 169.45C24.0183 167.293 25.8398 164.814 27.25 162.1C28.5796 159.569 29.5874 156.881 30.25 154.1C31.5496 148.926 32.4522 143.661 32.95 138.35C33.5499 132.45 33.9499 126.35 34.1499 120.05C34.3499 113.75 34.55 107.6 34.75 101.6C34.94 95.6001 35.15 90.2001 35.35 85.4001C35.75 72.2001 35.8999 58.9501 35.7999 45.6501C35.6999 32.3501 35.85 18.0001 36.25 2.6001H186.55V215H143.05V41.3L78.2999 41.4001Z" fill="#FFBA00"/>
<path d="M271.79 174.6L256.49 215.1H209.09L291.29 2.7002H340.45L421.45 215.1H373.75L359.05 174.6H271.79ZM284.39 136.2H346.19L315.59 48.9001L284.39 136.2Z" fill="#FFBA00"/>
<path d="M443.99 215.1V2.7002H597.89V41.4001H487.45V83.7002H536.05C546.783 83.5714 557.498 84.6277 568 86.8501C576.672 88.6597 584.825 92.4026 591.85 97.8C599.1 103.548 604.634 111.175 607.85 119.85C614.3 137.681 614.033 157.251 607.1 174.9C603.56 183.493 598.004 191.108 590.9 197.1C586.423 200.823 581.481 203.949 576.2 206.4C570.958 208.814 565.478 210.675 559.85 211.95C554.126 213.254 548.308 214.106 542.45 214.5C536.55 214.9 530.8 215.1 525.2 215.1H443.99ZM487.49 176.7H524.09C529.69 176.7 535.19 176.45 540.59 175.95C545.666 175.534 550.635 174.266 555.29 172.2C559.561 170.309 563.203 167.239 565.79 163.35C568.39 159.45 569.69 154.1 569.69 147.3C569.69 141.3 568.49 136.6 566.09 133.2C563.748 129.848 560.531 127.202 556.79 125.55C552.699 123.778 548.337 122.713 543.89 122.4C539.09 122 534.19 121.8 529.19 121.8L487.49 122.1V176.7Z" fill="#FFBA00"/>
<path d="M741.59 0C757.79 0 772.39 2.60005 785.39 7.80005C797.869 12.6509 809.133 20.1775 818.39 29.8501C827.572 39.6452 834.621 51.2399 839.09 63.9001C843.89 77.1001 846.29 91.7002 846.29 107.7C846.423 122.507 843.987 137.225 839.09 151.2C834.603 164.075 827.562 175.912 818.39 186C809.143 195.972 797.829 203.805 785.24 208.95C772.14 214.45 757.29 217.117 740.69 216.95C724.09 216.95 709.34 214.2 696.44 208.7C684.055 203.558 672.908 195.837 663.74 186.05C654.671 176.166 647.728 164.526 643.34 151.85C638.526 137.962 636.141 123.348 636.29 108.65C636.29 92.6501 638.74 78.0002 643.64 64.7002C648.213 51.9327 655.361 40.2409 664.64 30.3501C673.955 20.6041 685.262 12.9809 697.79 8C710.79 2.66667 725.39 0 741.59 0ZM680.99 108C680.945 116.887 682.209 125.731 684.74 134.25C687.076 142.196 690.837 149.65 695.84 156.25C700.851 162.742 707.26 168.023 714.59 171.7C722.19 175.6 731.09 177.65 741.29 177.85C751.09 178.05 759.79 176.3 767.39 172.6C774.802 169.052 781.277 163.811 786.29 157.3C791.417 150.55 795.28 142.927 797.69 134.8C802.839 117.635 802.891 99.3442 797.84 82.1501C795.512 74.0943 791.752 66.5234 786.74 59.8C781.785 53.2541 775.363 47.9623 767.99 44.3501C760.39 40.5501 751.49 38.6501 741.29 38.6501C731.29 38.6501 722.49 40.5501 714.89 44.3501C707.52 47.964 701.059 53.1938 695.99 59.6501C690.896 66.2332 687.08 73.7122 684.74 81.7002C682.204 90.2348 680.94 99.0966 680.99 108Z" fill="#FFBA00"/>
<path d="M961.18 2.70008C972.908 2.57265 984.605 3.93332 995.99 6.74989C1005.66 9.09613 1014.71 13.4959 1022.53 19.65C1030.01 25.7921 1035.79 33.7437 1039.33 42.7499C1043.24 52.2499 1045.09 63.9001 1044.88 77.7001C1044.68 89.7001 1042.58 100.367 1038.58 109.7C1034.84 118.64 1029.15 126.634 1021.93 133.1C1014.5 139.588 1005.82 144.488 996.43 147.5C986.02 150.897 975.129 152.585 964.18 152.5H923.08V215.2H879.58V2.79993L961.18 2.70008ZM961.78 114C966.954 114.031 972.106 113.324 977.08 111.9C981.692 110.599 985.984 108.351 989.68 105.3C993.322 102.247 996.285 98.4661 998.38 94.2001C1000.69 89.3206 1001.92 83.9992 1001.99 78.6C1002.38 65 998.78 55.3999 991.18 49.7999C983.58 44.1999 973.683 41.4 961.49 41.4H923.08V114H961.78Z" fill="#FFBA00"/>
<path d="M1099.45 174.6L1084.15 215.1H1036.74L1118.95 2.7002H1168.15L1249.15 215.1H1201.45L1186.74 174.6H1099.45ZM1112.04 136.2H1173.84L1143.24 48.9001L1112.04 136.2Z" fill="#FFBA00"/>
<path d="M1235.99 41.4001V2.7002H1412.69V41.4001H1346.09V215.1H1302.59V41.4001H1235.99Z" fill="#FFBA00"/>
<path d="M1524.59 0C1540.79 0 1555.39 2.60005 1568.39 7.80005C1580.87 12.6509 1592.13 20.1775 1601.39 29.8501C1610.57 39.6452 1617.62 51.2399 1622.09 63.9001C1626.89 77.1001 1629.29 91.7002 1629.29 107.7C1629.42 122.507 1626.99 137.225 1622.09 151.2C1617.6 164.075 1610.56 175.912 1601.39 186C1592.14 195.972 1580.83 203.805 1568.24 208.95C1555.14 214.45 1540.29 217.117 1523.69 216.95C1507.09 216.95 1492.34 214.2 1479.44 208.7C1467.06 203.558 1455.91 195.837 1446.74 186.05C1437.67 176.166 1430.73 164.526 1426.34 151.85C1421.54 137.959 1419.17 123.345 1419.34 108.65C1419.34 92.6501 1421.79 78.0002 1426.69 64.7002C1431.26 51.9327 1438.41 40.2409 1447.69 30.3501C1457.01 20.6041 1468.31 12.9809 1480.84 8C1493.81 2.66667 1508.39 0 1524.59 0ZM1463.99 108C1463.94 116.887 1465.21 125.731 1467.74 134.25C1470.08 142.196 1473.84 149.65 1478.84 156.25C1483.85 162.742 1490.26 168.023 1497.59 171.7C1505.19 175.6 1514.09 177.65 1524.29 177.85C1534.09 178.05 1542.79 176.3 1550.39 172.6C1557.8 169.052 1564.28 163.811 1569.29 157.3C1574.42 150.55 1578.28 142.927 1580.69 134.8C1585.84 117.635 1585.89 99.3442 1580.84 82.1501C1578.51 74.0943 1574.75 66.5234 1569.74 59.8C1564.78 53.2541 1558.36 47.9623 1550.99 44.3501C1543.39 40.5501 1534.49 38.6501 1524.29 38.6501C1514.29 38.6501 1505.49 40.5501 1497.89 44.3501C1490.52 47.964 1484.06 53.1938 1478.99 59.6501C1473.9 66.2332 1470.08 73.7122 1467.74 81.7002C1465.2 90.2348 1463.94 99.0966 1463.99 108Z" fill="#FFBA00"/>
<path d="M1744.18 2.70008C1755.91 2.57265 1767.6 3.93332 1778.99 6.74989C1788.66 9.09613 1797.71 13.4959 1805.53 19.65C1813.01 25.7921 1818.79 33.7437 1822.33 42.7499C1826.24 52.2499 1828.09 63.9001 1827.88 77.7001C1827.68 89.7001 1825.58 100.367 1821.58 109.7C1817.84 118.64 1812.15 126.634 1804.93 133.1C1797.5 139.588 1788.82 144.488 1779.43 147.5C1769.02 150.897 1758.13 152.585 1747.18 152.5H1706.08V215.2H1662.58V2.79993L1744.18 2.70008ZM1744.78 114C1749.95 114.031 1755.11 113.324 1760.08 111.9C1764.69 110.599 1768.98 108.351 1772.68 105.3C1776.32 102.247 1779.29 98.4661 1781.38 94.2001C1783.69 89.3206 1784.92 83.9992 1784.99 78.6C1785.38 65 1781.78 55.3999 1774.18 49.7999C1766.58 44.1999 1756.68 41.4 1744.49 41.4H1706.08V114H1744.78Z" fill="#FFBA00"/>
<path d="M1903.78 139.8L2007.58 2.7002H2042.68V215.1H1999.18V79.2002L1895.38 215.1H1860.28V2.7002H1903.78V139.8Z" fill="#FFBA00"/>
<path d="M2250.58 2.70011V215.1H2207.08V143.4H2178.58L2128.48 215.1H2078.08L2134.18 138.6C2117.18 135 2104.33 127.55 2095.63 116.25C2086.93 104.95 2082.68 90.8 2082.88 73.8C2083.08 60 2085.48 48.5 2090.08 39.3C2094.41 30.43 2100.78 22.7174 2108.68 16.8C2116.64 11.2483 2125.69 7.46368 2135.23 5.70011C2146.16 3.62372 2157.26 2.61895 2168.38 2.70011H2250.58ZM2207.08 105.6V41.4001H2167.45C2162.39 41.3829 2157.33 41.6333 2152.3 42.1501C2148.03 42.5157 2143.88 43.7945 2140.15 45.9001C2135.61 48.4374 2131.91 52.2425 2129.5 56.85C2127 61.5167 2125.75 67.4668 2125.75 74.7001C2125.66 79.5812 2126.86 84.4 2129.23 88.6676C2131.6 92.9353 2135.06 96.4998 2139.25 98.9999C2143.9 101.888 2149.12 103.731 2154.55 104.4C2160.32 105.198 2166.13 105.599 2171.95 105.6H2207.08Z" fill="#FFBA00"/>
<path d="M57.6699 356.2C49.7371 356.359 41.8567 354.881 34.5199 351.86C28.1097 349.159 22.3686 345.087 17.7 339.93C13.0662 334.693 9.54496 328.569 7.35 321.93C2.5764 307.053 2.60435 291.051 7.42995 276.19C9.6617 269.505 13.2346 263.346 17.93 258.09C22.6344 252.954 28.4062 248.909 34.84 246.24C42.1407 243.283 49.9644 241.834 57.84 241.98C65.7087 241.837 73.5272 243.262 80.84 246.17C87.2787 248.788 93.0523 252.809 97.74 257.94C102.433 263.182 105.985 269.342 108.17 276.03C112.916 290.935 112.916 306.946 108.17 321.85C105.98 328.536 102.429 334.696 97.74 339.94C93.0038 345.101 87.2035 349.171 80.74 351.87C73.4262 354.873 65.5749 356.347 57.6699 356.2ZM57.83 258.4C52.4508 258.264 47.1156 259.401 42.26 261.72C37.9948 263.837 34.2413 266.857 31.26 270.57C28.2274 274.421 25.9998 278.842 24.71 283.57C23.2693 288.607 22.5488 293.822 22.57 299.06C22.546 304.269 23.2666 309.455 24.71 314.46C26.0435 319.156 28.2373 323.565 31.18 327.46C34.1028 331.269 37.8678 334.349 42.18 336.46C47.0768 338.635 52.3734 339.766 57.7316 339.78C63.0898 339.794 68.392 338.69 73.2999 336.54C77.5902 334.498 81.3538 331.498 84.2999 327.77C87.2733 323.94 89.4741 319.57 90.7799 314.9C92.2299 309.784 92.9471 304.488 92.9099 299.17C92.9389 293.909 92.2218 288.67 90.7799 283.61C89.464 278.92 87.2646 274.525 84.2999 270.66C81.3828 266.903 77.6574 263.851 73.3999 261.73C68.5453 259.407 63.21 258.266 57.83 258.4Z" fill="#00A99D"/>
<path d="M131.45 243.39H209.98V259.82H149.78V287.82H175.38C181.025 287.778 186.661 288.28 192.21 289.32C196.875 290.124 201.31 291.928 205.21 294.61C208.771 297.174 211.603 300.62 213.43 304.61C215.377 308.77 216.35 313.903 216.35 320.01C216.35 326.75 215.113 332.387 212.64 336.92C210.301 341.295 206.904 345.014 202.76 347.74C198.471 350.501 193.702 352.431 188.7 353.43C183.295 354.548 177.789 355.104 172.27 355.09H131.45V243.39ZM149.78 338.82H170.95C174.291 338.826 177.63 338.642 180.95 338.27C183.968 337.968 186.909 337.139 189.64 335.82C192.156 334.568 194.285 332.657 195.8 330.29C197.38 327.87 198.17 324.603 198.17 320.49C198.17 316.703 197.433 313.703 195.96 311.49C194.537 309.321 192.539 307.59 190.19 306.49C187.615 305.351 184.86 304.674 182.05 304.49C179.05 304.23 175.89 304.09 172.73 304.09H149.82L149.78 338.82Z" fill="#00A99D"/>
<path d="M237.16 243.39H255.33V338.82H293.25V243.39H311.45V338.82H349.21V243.39H367.54V338.82H380.97V384.64H362.8V355.1H237.16V243.39Z" fill="#00A99D"/>
<path d="M396.1 355.1V243.39H473.68V259.82H414.45V291.58H466.91V308.17H414.45V338.82H473.7V355.1H396.1Z" fill="#00A99D"/>
<path d="M539.88 258.4C534.607 258.262 529.378 259.401 524.64 261.72C520.501 263.821 516.904 266.849 514.13 270.57C511.303 274.434 509.239 278.802 508.05 283.44C506.707 288.466 506.034 293.648 506.05 298.85C506.022 304.132 506.712 309.393 508.1 314.49C509.352 319.176 511.472 323.586 514.35 327.49C517.164 331.25 520.813 334.304 525.01 336.41C529.782 338.723 535.038 339.861 540.34 339.73C547.6 339.73 553.683 338.15 558.59 334.99C560.902 333.576 562.91 331.716 564.496 329.519C566.083 327.321 567.216 324.83 567.83 322.19H586.16C585.411 327.3 583.606 332.197 580.86 336.57C578.233 340.728 574.84 344.349 570.86 347.24C566.645 350.237 561.942 352.48 556.96 353.87C551.46 355.43 545.767 356.201 540.05 356.16C531.31 356.16 523.643 354.74 517.05 351.9C510.728 349.238 505.085 345.188 500.54 340.05C496.012 334.804 492.623 328.675 490.59 322.05C488.304 314.631 487.184 306.903 487.27 299.14C487.205 291.452 488.352 283.801 490.67 276.47C492.738 269.798 496.14 263.617 500.67 258.3C505.205 253.114 510.847 249.013 517.18 246.3C523.76 243.413 531.427 241.967 540.18 241.96C552.5 241.96 562.663 244.857 570.67 250.65C578.677 256.443 583.523 264.973 585.21 276.24H567.21C565.917 270.899 562.638 266.25 558.04 263.24C553.307 260.02 547.253 258.407 539.88 258.4Z" fill="#00A99D"/>
<path d="M646.69 355.1H628.36V259.82H592.81V243.39H682.08V259.82H646.69V355.1Z" fill="#00A99D"/>
<path d="M696.3 355.1V243.39H740.7C745.286 243.376 749.864 243.798 754.37 244.65C758.458 245.388 762.37 246.891 765.9 249.08C769.244 251.203 771.996 254.137 773.9 257.61C775.9 261.19 776.9 265.774 776.9 271.36C776.988 276.35 775.848 281.285 773.58 285.73C771.152 290.176 767.319 293.693 762.68 295.73C769.527 297.41 774.527 300.597 777.68 305.29C780.833 309.983 782.413 315.697 782.42 322.43C782.42 329.49 780.997 335.157 778.15 339.43C775.42 343.6 771.668 347.002 767.25 349.31C762.678 351.677 757.738 353.253 752.64 353.97C747.593 354.741 742.496 355.138 737.39 355.16L696.3 355.1ZM714.63 259.82V290.47H735.96C738.685 290.463 741.406 290.252 744.1 289.84C746.726 289.477 749.266 288.648 751.6 287.39C753.776 286.212 755.644 284.536 757.05 282.5C758.574 280.068 759.317 277.227 759.18 274.36C759.307 271.646 758.71 268.947 757.45 266.54C756.363 264.664 754.773 263.13 752.86 262.11C750.818 261.067 748.594 260.425 746.31 260.22C743.762 259.953 741.202 259.82 738.64 259.82H714.63ZM714.63 338.82H737.06C740.098 338.811 743.133 338.627 746.15 338.27C749.18 337.949 752.14 337.149 754.92 335.9C757.489 334.741 759.74 332.977 761.48 330.76C763.213 328.547 764.08 325.547 764.08 321.76C764.179 319.015 763.484 316.301 762.08 313.94C760.818 311.932 759.044 310.296 756.94 309.2C754.746 308.064 752.382 307.29 749.94 306.91C747.355 306.487 744.74 306.272 742.12 306.27H735.12L721.53 306.43H714.53L714.63 338.82Z" fill="#00A99D"/>
<path d="M802.32 355.1V243.39H879.9V259.82H820.65V291.58H873.1V308.17H820.65V338.82H879.9V355.1H802.32Z" fill="#00A99D"/>
<path d="M917.97 291.9H971.54V243.39H989.86V355.1H971.54V308.33H917.97V355.1H899.65V243.39H917.97V291.9Z" fill="#00A99D"/>
<path d="M1034.1 291.9H1087.66V243.39H1105.99V355.1H1087.66V308.33H1034.1V355.1H1015.77V243.39H1034.1V291.9Z" fill="#00A99D"/>
<path d="M1131.9 243.39H1150.07V286.52H1170.93C1176.34 286.484 1181.74 287.013 1187.04 288.1C1191.67 289.02 1196.06 290.904 1199.92 293.63C1203.58 296.306 1206.53 299.83 1208.53 303.9C1210.64 308.12 1211.69 313.337 1211.69 319.55C1211.69 326.39 1210.53 332.077 1208.21 336.61C1206.04 340.973 1202.81 344.721 1198.81 347.51C1194.56 350.378 1189.78 352.367 1184.75 353.36C1179.06 354.547 1173.26 355.131 1167.45 355.1H1131.9V243.39ZM1150.07 338.82H1166.35C1169.68 338.822 1173 338.612 1176.3 338.19C1179.34 337.838 1182.28 336.926 1184.99 335.5C1187.49 334.161 1189.61 332.206 1191.15 329.82C1192.73 327.393 1193.52 324.127 1193.52 320.02C1193.52 316.12 1192.81 313.04 1191.39 310.78C1190.02 308.56 1188.05 306.776 1185.7 305.64C1183.14 304.43 1180.38 303.682 1177.56 303.43C1174.46 303.111 1171.35 302.954 1168.24 302.96H1150.07V338.82ZM1227.07 355.1V243.39H1245.4V355.1H1227.07Z" fill="#00A99D"/>
<path d="M1333.67 243.39H1355.15L1319.29 299.01L1356.29 355.1H1334.45L1307.74 313.38L1280.45 355.1H1259.75L1296.88 299.16L1260.88 243.39H1282.68L1308.28 284.94L1333.67 243.39Z" fill="#00A99D"/>
<path d="M1503.99 355.1H1485.66V259.82H1431.66V355.1H1413.34V243.39H1504.03L1503.99 355.1Z" fill="#00A99D"/>
<path d="M1529.9 355.1V243.39H1570.82C1576.66 243.316 1582.48 244.033 1588.12 245.52C1592.89 246.784 1597.33 249.078 1601.12 252.24C1604.8 255.432 1607.64 259.472 1609.41 264.01C1611.48 269.482 1612.47 275.302 1612.33 281.15C1612.42 286.771 1611.4 292.354 1609.33 297.58C1607.45 302.257 1604.53 306.446 1600.8 309.83C1596.91 313.261 1592.37 315.867 1587.45 317.49C1581.82 319.352 1575.92 320.261 1569.99 320.18H1547.99V355.1H1529.9ZM1548.07 303.9H1569.07C1572.35 303.926 1575.62 303.502 1578.79 302.64C1581.64 301.875 1584.3 300.531 1586.61 298.69C1588.86 296.851 1590.67 294.53 1591.9 291.9C1593.3 288.821 1594.02 285.481 1594.04 282.1C1594.04 274.2 1592.01 268.513 1587.95 265.04C1583.89 261.567 1577.97 259.827 1570.18 259.82H1548.06L1548.07 303.9Z" fill="#00A99D"/>
<path d="M1680.79 356.2C1672.86 356.36 1664.98 354.882 1657.64 351.86C1651.23 349.156 1645.48 345.085 1640.81 339.93C1636.18 334.693 1632.66 328.569 1630.46 321.93C1625.7 307.051 1625.73 291.053 1630.54 276.19C1632.78 269.505 1636.35 263.345 1641.05 258.09C1645.75 252.954 1651.52 248.909 1657.95 246.24C1665.25 243.283 1673.07 241.834 1680.95 241.98C1688.82 241.836 1696.64 243.261 1703.95 246.17C1710.39 248.785 1716.17 252.806 1720.86 257.94C1725.55 263.182 1729.11 269.342 1731.29 276.03C1736.02 290.937 1736.02 306.943 1731.29 321.85C1729.1 328.536 1725.55 334.695 1720.86 339.94C1716.12 345.1 1710.32 349.17 1703.86 351.87C1696.55 354.874 1688.7 356.348 1680.79 356.2ZM1680.94 258.4C1675.56 258.265 1670.23 259.402 1665.38 261.72C1661.11 263.837 1657.36 266.857 1654.38 270.57C1651.35 274.422 1649.12 278.842 1647.82 283.57C1646.39 288.608 1645.67 293.822 1645.69 299.06C1645.67 304.268 1646.38 309.453 1647.82 314.46C1649.16 319.157 1651.35 323.565 1654.3 327.46C1657.22 331.268 1660.99 334.348 1665.3 336.46C1670.2 338.636 1675.5 339.766 1680.86 339.78C1686.22 339.794 1691.52 338.69 1696.43 336.54C1700.72 334.495 1704.48 331.495 1707.43 327.77C1710.4 323.935 1712.6 319.566 1713.91 314.9C1715.36 309.784 1716.08 304.488 1716.04 299.17C1716.07 293.909 1715.35 288.67 1713.91 283.61C1712.59 278.924 1710.39 274.53 1707.43 270.66C1704.51 266.903 1700.79 263.851 1696.53 261.73C1691.67 259.406 1686.33 258.265 1680.94 258.4Z" fill="#00A99D"/>
<path d="M1754.57 355.1V243.39H1832.15V259.82H1772.9V291.58H1825.36V308.17H1772.9V338.82H1832.15V355.1H1754.57Z" fill="#00A99D"/>
<path d="M1870.23 355.1H1851.9V243.39H1870.23V292.21H1884.6L1919.05 243.39H1940.05L1900.24 297.58L1940.53 355.1H1919.2L1886.33 308.49H1870.22L1870.23 355.1Z" fill="#00A99D"/>
<path d="M1997.26 355.1H1978.93V259.82H1943.38V243.39H2032.65V259.82H1997.26V355.1Z" fill="#00A99D"/>
<path d="M2091.58 356.2C2083.65 356.36 2075.77 354.882 2068.44 351.86C2062.03 349.157 2056.28 345.085 2051.61 339.93C2046.98 334.693 2043.45 328.569 2041.26 321.93C2036.5 307.051 2036.53 291.053 2041.34 276.19C2043.57 269.503 2047.15 263.343 2051.85 258.09C2056.55 252.954 2062.32 248.909 2068.75 246.24C2076.05 243.283 2083.87 241.834 2091.75 241.98C2099.62 241.836 2107.44 243.261 2114.75 246.17C2121.19 248.788 2126.97 252.808 2131.66 257.94C2136.35 263.182 2139.9 269.342 2142.09 276.03C2146.82 290.937 2146.82 306.944 2142.09 321.85C2139.9 328.536 2136.35 334.696 2131.66 339.94C2126.92 345.098 2121.12 349.167 2114.66 351.87C2107.34 354.875 2099.49 356.349 2091.58 356.2ZM2091.74 258.4C2086.36 258.265 2081.03 259.402 2076.18 261.72C2071.91 263.837 2068.16 266.857 2065.18 270.57C2062.14 274.42 2059.91 278.841 2058.62 283.57C2057.19 288.608 2056.47 293.822 2056.49 299.06C2056.47 304.268 2057.18 309.453 2058.62 314.46C2059.95 319.159 2062.15 323.567 2065.1 327.46C2068.02 331.27 2071.79 334.351 2076.1 336.46C2081 338.636 2086.3 339.767 2091.66 339.78C2097.02 339.794 2102.32 338.691 2107.23 336.54C2111.52 334.495 2115.28 331.495 2118.23 327.77C2121.2 323.936 2123.4 319.566 2124.71 314.9C2126.16 309.784 2126.88 304.488 2126.84 299.17C2126.87 293.909 2126.15 288.67 2124.71 283.61C2123.39 278.924 2121.19 274.53 2118.23 270.66C2115.31 266.903 2111.58 263.851 2107.32 261.73C2102.46 259.405 2097.12 258.264 2091.74 258.4Z" fill="#00A99D"/>
<path d="M2165.21 355.1V243.39H2209.61C2214.2 243.376 2218.77 243.798 2223.28 244.65C2227.37 245.388 2231.28 246.891 2234.81 249.08C2238.15 251.203 2240.91 254.137 2242.81 257.61C2244.81 261.19 2245.81 265.774 2245.81 271.36C2245.9 276.35 2244.76 281.286 2242.49 285.73C2240.06 290.176 2236.23 293.693 2231.59 295.73C2238.44 297.41 2243.44 300.597 2246.59 305.29C2249.74 309.983 2251.32 315.697 2251.33 322.43C2251.33 329.49 2249.91 335.157 2247.07 339.43C2244.33 343.599 2240.58 346.999 2236.16 349.31C2231.59 351.677 2226.65 353.253 2221.55 353.97C2216.5 354.741 2211.41 355.139 2206.3 355.16L2165.21 355.1ZM2183.54 259.82V290.47H2204.87C2207.6 290.463 2210.32 290.252 2213.01 289.84C2215.64 289.477 2218.18 288.648 2220.51 287.39C2222.69 286.212 2224.55 284.536 2225.96 282.5C2227.49 280.069 2228.23 277.228 2228.1 274.36C2228.23 271.645 2227.63 268.944 2226.36 266.54C2225.27 264.667 2223.69 263.133 2221.78 262.11C2219.73 261.068 2217.51 260.426 2215.22 260.22C2212.68 259.953 2210.12 259.82 2207.56 259.82H2183.54ZM2183.54 338.82H2205.98C2209.01 338.81 2212.05 338.627 2215.06 338.27C2218.09 337.95 2221.05 337.15 2223.83 335.9C2226.4 334.741 2228.65 332.977 2230.39 330.76C2232.12 328.547 2232.98 325.547 2232.99 321.76C2233.09 319.015 2232.39 316.301 2230.99 313.94C2229.73 311.932 2227.95 310.296 2225.85 309.2C2223.66 308.062 2221.29 307.289 2218.85 306.91C2216.26 306.487 2213.65 306.272 2211.03 306.27H2204.08L2190.49 306.43H2183.54V338.82Z" fill="#00A99D"/>
</g>
<defs>
<clipPath id="clip0_196_138">
<rect width="2251.32" height="384.65" fill="white"/>
</clipPath>
</defs>
</svg>
